<svg xmlns="http://www.w3.org/2000/svg" width="26.656" height="19.417" viewBox="0 0 26.656 19.417"><defs><style>.a{fill:#00b300;}</style></defs><g transform="translate(0 -58.625)"><g transform="translate(0 58.625)"><path class="a" d="M26.078,64.385H24.123a.577.577,0,0,0-.4.161l-.417.4a20.8,20.8,0,0,0-3.076-4.9,3.849,3.849,0,0,0-2.99-1.417H9.414a3.848,3.848,0,0,0-2.989,1.417,20.324,20.324,0,0,0-3.082,4.9l-.411-.394a.578.578,0,0,0-.4-.161H.577A.577.577,0,0,0,0,64.962V66.3a.577.577,0,0,0,.541.576L2.55,67a12.813,12.813,0,0,0-.541,4.074A5.2,5.2,0,0,0,2.9,74.444v3.114a.484.484,0,0,0,.484.483H5.6a.484.484,0,0,0,.484-.483V75.625H20.569v1.934a.484.484,0,0,0,.484.483h2.224a.484.484,0,0,0,.484-.483V74.444a5.2,5.2,0,0,0,.885-3.369A12.813,12.813,0,0,0,24.105,67l2.009-.127a.577.577,0,0,0,.541-.576V64.962A.577.577,0,0,0,26.078,64.385Zm-18-2.993a1.724,1.724,0,0,1,1.339-.635h7.827a1.724,1.724,0,0,1,1.339.635,20.12,20.12,0,0,1,2.289,3.393l-15.1,0A20.249,20.249,0,0,1,8.075,61.392ZM6.43,73.26c-1.107,0-2-.362-2-1.239s.326-1.588,1.433-1.588,2.576.711,2.576,1.588S7.537,73.26,6.43,73.26Zm9-.183h-4.2a1.15,1.15,0,0,1-1.149-1.149.322.322,0,0,1,.322-.322h5.856a.322.322,0,0,1,.322.322A1.15,1.15,0,0,1,15.429,73.077Zm4.8.183c-1.107,0-2-.362-2-1.239s1.469-1.588,2.576-1.588,1.433.711,1.433,1.588S21.333,73.26,20.226,73.26Z" transform="translate(0 -58.625)"/></g></g></svg>